<svg width="48" height="48" viewBox="0 0 48 48" fill="none" xmlns="http://www.w3.org/2000/svg">
<circle cx="24" cy="24" r="24" fill="#773DBD"/>
<path fill-rule="evenodd" clip-rule="evenodd" d="M25 13C25.5523 13 26 13.4477 26 14V17C26 18.6568 27.3431 20 29 20H32C32.5523 20 33 20.4477 33 21V32C33 33.6569 31.6569 35 30 35H18C16.3432 35 15 33.6569 15 32V16C15 14.3432 16.3432 13 18 13H25ZM24 23C23.4477 23 23 23.4477 23 24V29C23 29.5523 23.4477 30 24 30C24.5523 30 25 29.5523 25 29V24C25 23.4477 24.5523 23 24 23ZM20 26C19.4477 26 19 26.4477 19 27V29C19 29.5523 19.4477 30 20 30C20.5523 30 21 29.5523 21 29V27C21 26.4477 20.5523 26 20 26ZM28 25C27.4477 25 27 25.4477 27 26V29C27 29.5523 27.4477 30 28 30C28.5523 30 29 29.5523 29 29V26C29 25.4477 28.5523 25 28 25ZM28 14C28 13.4478 28.4681 12.964 28.9774 13.1776C29.1979 13.27 29.4028 13.4029 29.5858 13.5858L32.4142 16.4143C32.5972 16.5972 32.73 16.8021 32.8225 17.0226C33.0361 17.5319 32.5523 18.0001 32 18.0001H29C28.4477 18.0001 28 17.5523 28 17.0001V14Z" fill="white"/>
</svg>
