<svg width="64" height="64" viewBox="0 0 64 64" fill="none" xmlns="http://www.w3.org/2000/svg">
<g clip-path="url(#clip0_0_354)">
<path d="M21.443 16.0278H20.6887V18.8344H21.443V16.0278Z" fill="#FFE99E"/>
<path d="M23.4265 19.0611V31.96C23.4265 32.3569 23.203 32.6687 22.9236 32.6687H19.3757C19.0964 32.6687 18.9008 32.3569 18.9008 31.96V19.0611C18.9008 18.6643 19.1243 18.3524 19.3757 18.3524H22.9236C23.203 18.3524 23.4265 18.6643 23.4265 19.0611Z" fill="#00B7B7"/>
<path d="M22.8119 18.3241V30.7693C22.8119 31.1662 22.5884 31.478 22.337 31.478H18.9008V19.0611C18.9008 18.6643 19.1243 18.3524 19.3757 18.3524H22.8119V18.3241Z" fill="#00CCD5"/>
<path d="M23.5103 18.2957V19.9683C23.5103 20.1101 23.4264 20.2518 23.2868 20.2518H23.1191V21.1306C23.1191 21.4425 22.9236 21.6976 22.7001 21.6976C22.7001 21.6976 22.6442 21.6976 22.6163 21.6976C22.4207 21.6409 22.2811 21.4141 22.2811 21.159V20.2802V20.1668C22.2811 19.8833 22.1414 19.6281 21.9179 19.5998C21.862 19.5998 21.8061 19.5998 21.7503 19.5998C21.5547 19.6565 21.415 19.8549 21.415 20.1101V22.0095C21.415 22.293 21.2754 22.5481 21.0519 22.5764C20.996 22.5764 20.9401 22.5764 20.8843 22.5764C20.6887 22.5197 20.549 22.293 20.549 22.0378V20.4786C20.549 20.4786 20.4652 20.2802 20.3814 20.2802H18.9567C18.9567 20.2802 18.7611 20.1668 18.7611 19.9967V18.3241C18.7611 18.1823 18.8449 18.0406 18.9567 18.0406H23.2868C23.2868 18.0406 23.5103 18.154 23.5103 18.3241V18.2957Z" fill="#00B7B7"/>
<path d="M23.3426 18.2957V19.9683C23.3426 19.9683 23.2588 20.2235 23.1471 20.2518H22.9795V21.1306C22.9795 21.4141 22.8398 21.6126 22.6442 21.6693C22.6442 21.6693 22.5884 21.6693 22.5604 21.6693C22.3369 21.6693 22.1414 21.4141 22.1414 21.1023V20.2235V20.1101C22.1414 19.8266 22.0017 19.5998 21.8061 19.5431C21.5547 19.4864 21.3033 19.7415 21.3033 20.0817V21.9811C21.3033 22.2646 21.1636 22.4914 20.9681 22.5481C20.6887 22.6048 20.4652 22.3496 20.4652 22.0095V20.4503C20.4652 20.4503 20.3814 20.2518 20.2976 20.2518H19.0405C19.0405 20.2518 18.8449 20.1384 18.8449 19.9683V18.2957C18.8449 18.154 18.9287 18.0122 19.0405 18.0122H23.175C23.175 18.0122 23.3985 18.1256 23.3985 18.2957H23.3426Z" fill="#1AD8D8"/>
<path d="M22.6442 15.8861C22.6442 16.3396 22.5045 16.8499 21.862 17.2185C21.7503 17.2752 21.5826 17.3319 21.443 17.3319H20.7166C20.5769 17.3319 20.4093 17.3035 20.2976 17.2185C20.0741 17.0767 19.7109 16.7932 19.5433 16.3396C19.5433 16.2829 19.5154 16.1979 19.4874 16.1128C19.4874 16.0561 19.4874 15.9994 19.4874 15.9427C19.4874 15.6876 19.5433 15.4041 19.7389 15.0923C19.7947 14.9789 19.8785 14.8938 19.9623 14.7521C19.9623 14.7521 20.0182 14.6954 20.0462 14.6387C20.1579 14.5253 20.2696 14.4119 20.3814 14.2702C20.3814 14.2702 20.4093 14.2418 20.4931 14.1568C20.5769 14.0717 20.6887 13.9016 20.8004 13.7315C20.8563 13.6465 20.9122 13.5614 20.9401 13.4764C20.9401 13.4764 20.968 13.4764 20.996 13.4764C20.996 13.4764 20.996 13.4764 21.0239 13.4764C21.0239 13.5331 21.0798 13.5898 21.1357 13.6748C21.1636 13.7315 21.2195 13.8166 21.2474 13.8733C21.2474 13.8733 21.3033 13.9867 21.3312 14.0434C21.3312 14.0717 21.3591 14.1284 21.3871 14.1851C21.415 14.2985 21.443 14.3835 21.443 14.4969C21.443 14.5253 21.5268 14.5536 21.5547 14.5536C21.5547 14.5536 21.5547 14.5536 21.5826 14.5536C21.5826 14.5536 21.6664 14.4402 21.7223 14.3835C21.7223 14.3552 21.8061 14.3552 21.8341 14.3835C21.8899 14.4402 21.9737 14.5536 22.0576 14.6954C22.0576 14.6954 22.0855 14.7521 22.1134 14.7804C22.1693 14.8371 22.1972 14.9222 22.2531 15.0072C22.309 15.1206 22.3649 15.2624 22.3928 15.4041C22.3928 15.4892 22.4487 15.5459 22.4487 15.6309C22.4487 15.6876 22.4487 15.716 22.4487 15.7727C22.4487 15.801 22.4487 15.8294 22.4487 15.8861H22.6442Z" fill="#D32205"/>
<path d="M22.4487 15.3191V15.4041C22.4487 15.8577 22.309 16.368 21.6664 16.7365C21.5547 16.7932 21.3871 16.8499 21.2474 16.8499H20.5211C20.3814 16.8499 20.2138 16.8216 20.102 16.7365C19.9344 16.6231 19.655 16.4247 19.4874 16.1412C19.4874 16.0845 19.4874 16.0278 19.4874 15.9711C19.4874 15.716 19.5433 15.4325 19.7389 15.1206C19.7947 15.0072 19.8785 14.9222 19.9623 14.7804C19.9623 14.7804 20.0182 14.7237 20.0462 14.667C20.1579 14.5536 20.2696 14.4402 20.3814 14.2985C20.3814 14.2985 20.4093 14.2702 20.4931 14.1851C20.5769 14.1001 20.6887 13.93 20.8004 13.7599C20.8563 13.6748 20.9122 13.5898 20.9401 13.5047C20.9401 13.5047 20.968 13.5047 20.996 13.5047C20.996 13.5047 20.996 13.5047 21.0239 13.5047C21.0239 13.5614 21.0798 13.6181 21.1357 13.7032C21.1636 13.7599 21.2195 13.8449 21.2474 13.9016C21.2474 13.9016 21.2474 13.9867 21.2474 14.0434C21.2474 14.0434 21.2474 14.0717 21.3033 14.0717C21.3033 14.1001 21.3312 14.1568 21.3591 14.2135C21.3871 14.3269 21.415 14.4119 21.415 14.5253C21.415 14.5536 21.4988 14.582 21.5268 14.582C21.5268 14.582 21.5268 14.582 21.5547 14.582C21.5547 14.582 21.6385 14.4686 21.6944 14.4119C21.6944 14.3836 21.7782 14.3836 21.8061 14.4119C21.862 14.4686 21.9458 14.582 22.0296 14.7237C22.0296 14.7237 22.0576 14.7804 22.0855 14.8088C22.1414 14.8655 22.1693 14.9505 22.2252 15.0356C22.2252 15.0923 22.2252 15.1206 22.2252 15.1773C22.2252 15.234 22.2252 15.2624 22.2252 15.3191H22.4487Z" fill="#EA2700"/>
<path d="M21.1636 17.3318C20.577 17.3318 20.1579 16.7082 20.4093 16.1695C20.5211 15.9144 20.7166 15.6593 21.0798 15.3474L21.1636 15.5459C21.1636 15.5459 21.3312 15.6593 21.3871 15.6026C21.3871 15.6026 21.9738 15.9427 22.0017 16.5097C22.0017 16.9633 21.6385 17.3318 21.1636 17.3318Z" fill="#FFE99E"/>
<path d="M31.6956 13.1929H30.9413V15.9995H31.6956V13.1929Z" fill="#FFE99E"/>
<path d="M33.679 16.2262V29.1251C33.679 29.522 33.4555 29.8338 33.1762 29.8338H29.6283C29.3489 29.8338 29.1534 29.522 29.1534 29.1251V16.2262C29.1534 15.8294 29.3769 15.5175 29.6283 15.5175H33.1762C33.4555 15.5175 33.679 15.8294 33.679 16.2262Z" fill="#E53563"/>
<path d="M33.0924 15.4892V27.9344C33.0924 28.3313 32.8689 28.6431 32.6175 28.6431H29.1813V16.2262C29.1813 15.8294 29.4048 15.5175 29.6562 15.5175H33.0924V15.4892Z" fill="#FA446D"/>
<path d="M33.7908 15.4608V17.1334C33.7908 17.2752 33.707 17.4169 33.5673 17.4169H33.3997V18.2957C33.3997 18.6076 33.2041 18.8627 32.9806 18.8627C32.9806 18.8627 32.9248 18.8627 32.8968 18.8627C32.7013 18.806 32.5616 18.5792 32.5616 18.3241V17.4453V17.3319C32.5616 17.0484 32.4219 16.7932 32.1984 16.7649C32.1425 16.7649 32.0867 16.7649 32.0308 16.7649C31.8352 16.8216 31.6956 17.02 31.6956 17.2752V19.1746C31.6956 19.4581 31.5559 19.7132 31.3324 19.7415C31.2765 19.7415 31.2206 19.7415 31.1648 19.7415C30.9692 19.6848 30.8295 19.4581 30.8295 19.2029V17.6437C30.8295 17.6437 30.7457 17.4453 30.6619 17.4453H29.2372C29.2372 17.4453 29.0416 17.3319 29.0416 17.1618V15.4892C29.0416 15.3474 29.1254 15.2057 29.2372 15.2057H33.5673C33.5673 15.2057 33.7908 15.3191 33.7908 15.4892V15.4608Z" fill="#E53563"/>
<path d="M33.5952 15.4608V17.1334C33.5952 17.1334 33.5114 17.3886 33.3996 17.4169H33.232V18.2957C33.232 18.5792 33.0923 18.7777 32.8968 18.8344C32.8968 18.8344 32.8409 18.8344 32.813 18.8344C32.5895 18.8344 32.3939 18.5792 32.3939 18.2674V17.3886V17.2752C32.3939 16.9917 32.2543 16.7649 32.0587 16.7082C31.8073 16.6515 31.5559 16.9066 31.5559 17.2468V19.1462C31.5559 19.4297 31.4162 19.6565 31.2206 19.7132C30.9413 19.7699 30.7178 19.5147 30.7178 19.1746V17.6154C30.7178 17.6154 30.634 17.4169 30.5502 17.4169H29.293C29.293 17.4169 29.0975 17.3035 29.0975 17.1334V15.4608C29.0975 15.3191 29.1813 15.1773 29.293 15.1773H33.4276C33.4276 15.1773 33.6511 15.2907 33.6511 15.4608H33.5952Z" fill="#F2668C"/>
<path d="M32.8968 13.0512C32.8968 13.5047 32.7572 14.015 32.1146 14.3836C32.0029 14.4403 31.8353 14.497 31.6956 14.497H30.9692C30.8296 14.497 30.6619 14.4686 30.5502 14.3836C30.3267 14.2418 29.9635 13.9583 29.7959 13.5047C29.7959 13.448 29.768 13.363 29.7401 13.2779C29.7401 13.2212 29.7401 13.1645 29.7401 13.1078C29.7401 12.8527 29.7959 12.5692 29.9915 12.2574C30.0473 12.144 30.1312 12.0589 30.215 11.9172C30.215 11.9172 30.2708 11.8605 30.2988 11.8038C30.4105 11.6904 30.5223 11.577 30.634 11.4353C30.634 11.4353 30.6619 11.4069 30.7458 11.3219C30.8296 11.2368 30.9413 11.0667 31.053 10.8966C31.1089 10.8116 31.1648 10.7265 31.1927 10.6415C31.1927 10.6415 31.2207 10.6415 31.2486 10.6415C31.2486 10.6415 31.2486 10.6415 31.2765 10.6415C31.2765 10.6982 31.3324 10.7549 31.3883 10.8399C31.4162 10.8966 31.4721 10.9817 31.5 11.0384C31.5 11.0384 31.5559 11.1518 31.5838 11.2085C31.5838 11.2368 31.6118 11.2935 31.6397 11.3502C31.6676 11.4636 31.6956 11.5486 31.6956 11.662C31.6956 11.6904 31.7794 11.7187 31.8073 11.7187C31.8073 11.7187 31.8073 11.7187 31.8353 11.7187C31.8353 11.7187 31.9191 11.6053 31.9749 11.5486C31.9749 11.5203 32.0587 11.5203 32.0867 11.5486C32.1426 11.6053 32.2264 11.7187 32.3102 11.8605C32.3102 11.8605 32.3381 11.9172 32.366 11.9455C32.4219 12.0022 32.4499 12.0873 32.5057 12.1723C32.5616 12.2857 32.6175 12.4275 32.6454 12.5692C32.6454 12.6543 32.7013 12.711 32.7013 12.796C32.7013 12.8527 32.7013 12.8811 32.7013 12.9378C32.7013 12.9661 32.7013 12.9945 32.7013 13.0512H32.8968Z" fill="#D32205"/>
<path d="M32.7013 12.4842V12.5692C32.7013 13.0228 32.5616 13.5331 31.9191 13.9016C31.8073 13.9583 31.6397 14.015 31.5 14.015H30.7737C30.634 14.015 30.4664 13.9867 30.3546 13.9016C30.187 13.7882 29.9077 13.5898 29.7401 13.3063C29.7401 13.2496 29.7401 13.1929 29.7401 13.1362C29.7401 12.8811 29.7959 12.5976 29.9915 12.2857C30.0473 12.1723 30.1312 12.0873 30.215 11.9455C30.215 11.9455 30.2708 11.8888 30.2988 11.8321C30.4105 11.7187 30.5223 11.6053 30.634 11.4636C30.634 11.4636 30.6619 11.4353 30.7458 11.3502C30.8296 11.2652 30.9413 11.0951 31.053 10.925C31.1089 10.8399 31.1648 10.7549 31.1927 10.6698C31.1927 10.6698 31.2207 10.6698 31.2486 10.6698C31.2486 10.6698 31.2486 10.6698 31.2765 10.6698C31.2765 10.7265 31.3324 10.7832 31.3883 10.8683C31.4162 10.925 31.4721 11.01 31.5 11.0667C31.5 11.0667 31.5 11.1518 31.5 11.2085C31.5 11.2085 31.5 11.2368 31.5559 11.2368C31.5559 11.2652 31.5838 11.3219 31.6118 11.3786C31.6397 11.492 31.6676 11.577 31.6676 11.6904C31.6676 11.7187 31.7515 11.7471 31.7794 11.7471C31.7794 11.7471 31.7794 11.7471 31.8073 11.7471C31.8073 11.7471 31.8911 11.6337 31.947 11.577C31.947 11.5487 32.0308 11.5487 32.0588 11.577C32.1146 11.6337 32.1984 11.7471 32.2822 11.8888C32.2822 11.8888 32.3102 11.9455 32.3381 11.9739C32.394 12.0306 32.4219 12.1156 32.4778 12.2007C32.4778 12.2574 32.4778 12.2857 32.4778 12.3424C32.4778 12.3991 32.4778 12.4275 32.4778 12.4842H32.7013Z" fill="#EA2700"/>
<path d="M31.4162 14.4969C30.8295 14.4969 30.4105 13.8733 30.6619 13.3346C30.7736 13.0795 30.9692 12.8244 31.3324 12.5125L31.4162 12.711C31.4162 12.711 31.5838 12.8244 31.6397 12.7677C31.6397 12.7677 32.2263 13.1078 32.2543 13.6748C32.2543 14.1284 31.8911 14.4969 31.4162 14.4969Z" fill="#FFE99E"/>
<path d="M41.9481 16.0278H41.1938V18.8344H41.9481V16.0278Z" fill="#FFE99E"/>
<path d="M43.9316 19.0611V31.96C43.9316 32.3569 43.7081 32.6687 43.4287 32.6687H39.8809C39.6015 32.6687 39.4059 32.3569 39.4059 31.96V19.0611C39.4059 18.6643 39.6294 18.3524 39.8809 18.3524H43.4287C43.7081 18.3524 43.9316 18.6643 43.9316 19.0611Z" fill="#E29805"/>
<path d="M43.345 18.3241V30.7693C43.345 31.1662 43.1215 31.478 42.87 31.478H39.4339V19.0611C39.4339 18.6643 39.6574 18.3524 39.9088 18.3524H43.345V18.3241Z" fill="#FCB004"/>
<path d="M44.0433 18.2957V19.9683C44.0433 20.1101 43.9595 20.2518 43.8198 20.2518H43.6522V21.1306C43.6522 21.4425 43.4567 21.6976 43.2332 21.6976C43.2332 21.6976 43.1773 21.6976 43.1494 21.6976C42.9538 21.6409 42.8141 21.4141 42.8141 21.159V20.2802V20.1668C42.8141 19.8833 42.6745 19.6281 42.451 19.5998C42.3951 19.5998 42.3392 19.5998 42.2834 19.5998C42.0878 19.6565 41.9481 19.8549 41.9481 20.1101V22.0095C41.9481 22.293 41.8084 22.5481 41.585 22.5764C41.5291 22.5764 41.4732 22.5764 41.4173 22.5764C41.2218 22.5197 41.0821 22.293 41.0821 22.0378V20.4786C41.0821 20.4786 40.9983 20.2802 40.9145 20.2802H39.4897C39.4897 20.2802 39.2942 20.1668 39.2942 19.9967V18.3241C39.2942 18.1823 39.378 18.0406 39.4897 18.0406H43.8198C43.8198 18.0406 44.0433 18.154 44.0433 18.3241V18.2957Z" fill="#E29805"/>
<path d="M43.8757 18.2957V19.9683C43.8757 19.9683 43.7919 20.2235 43.6802 20.2518H43.5125V21.1306C43.5125 21.4141 43.3729 21.6126 43.1773 21.6693C43.1773 21.6693 43.1214 21.6693 43.0935 21.6693C42.87 21.6693 42.6745 21.4141 42.6745 21.1023V20.2235V20.1101C42.6745 19.8266 42.5348 19.5998 42.3392 19.5431C42.0878 19.4864 41.8364 19.7415 41.8364 20.0817V21.9811C41.8364 22.2646 41.6967 22.4914 41.5011 22.5481C41.2218 22.6048 40.9983 22.3496 40.9983 22.0095V20.4503C40.9983 20.4503 40.9145 20.2518 40.8307 20.2518H39.5735C39.5735 20.2518 39.378 20.1384 39.378 19.9683V18.2957C39.378 18.154 39.4618 18.0122 39.5735 18.0122H43.7081C43.7081 18.0122 43.9316 18.1256 43.9316 18.2957H43.8757Z" fill="#FCC047"/>
<path d="M43.1494 15.8861C43.1494 16.3396 43.0097 16.8499 42.3672 17.2185C42.2554 17.2752 42.0878 17.3319 41.9481 17.3319H41.2218C41.0821 17.3319 40.9145 17.3035 40.8028 17.2185C40.5793 17.0767 40.2161 16.7932 40.0485 16.3396C40.0485 16.2829 40.0206 16.1979 39.9926 16.1128C39.9926 16.0561 39.9926 15.9994 39.9926 15.9427C39.9926 15.6876 40.0485 15.4041 40.244 15.0923C40.2999 14.9789 40.3837 14.8938 40.4675 14.7521C40.4675 14.7521 40.5234 14.6954 40.5513 14.6387C40.6631 14.5253 40.7748 14.4119 40.8866 14.2702C40.8866 14.2702 40.9145 14.2418 40.9983 14.1568C41.0821 14.0717 41.1939 13.9016 41.3056 13.7315C41.3615 13.6465 41.4174 13.5614 41.4453 13.4764C41.4453 13.4764 41.4732 13.4764 41.5012 13.4764C41.5012 13.4764 41.5012 13.4764 41.5291 13.4764C41.5291 13.5331 41.585 13.5898 41.6408 13.6748C41.6688 13.7315 41.7247 13.8166 41.7526 13.8733C41.7526 13.8733 41.8085 13.9867 41.8364 14.0434C41.8364 14.0717 41.8643 14.1284 41.8923 14.1851C41.9202 14.2985 41.9481 14.3835 41.9481 14.4969C41.9481 14.5253 42.032 14.5536 42.0599 14.5536C42.0599 14.5536 42.0599 14.5536 42.0878 14.5536C42.0878 14.5536 42.1716 14.4402 42.2275 14.3835C42.2275 14.3552 42.3113 14.3552 42.3392 14.3835C42.3951 14.4402 42.4789 14.5536 42.5627 14.6954C42.5627 14.6954 42.5907 14.7521 42.6186 14.7804C42.6745 14.8371 42.7024 14.9222 42.7583 15.0072C42.8142 15.1206 42.87 15.2624 42.898 15.4041C42.898 15.4892 42.9538 15.5459 42.9538 15.6309C42.9538 15.6876 42.9538 15.716 42.9538 15.7727C42.9538 15.801 42.9538 15.8294 42.9538 15.8861H43.1494Z" fill="#D32205"/>
<path d="M42.9538 15.3191V15.4041C42.9538 15.8577 42.8142 16.368 42.1716 16.7365C42.0599 16.7932 41.8923 16.8499 41.7526 16.8499H41.0263C40.8866 16.8499 40.719 16.8216 40.6072 16.7365C40.4396 16.6231 40.1602 16.4247 39.9926 16.1412C39.9926 16.0845 39.9926 16.0278 39.9926 15.9711C39.9926 15.716 40.0485 15.4325 40.244 15.1206C40.2999 15.0072 40.3837 14.9222 40.4675 14.7804C40.4675 14.7804 40.5234 14.7237 40.5513 14.667C40.6631 14.5536 40.7748 14.4402 40.8866 14.2985C40.8866 14.2985 40.9145 14.2702 40.9983 14.1851C41.0821 14.1001 41.1939 13.93 41.3056 13.7599C41.3615 13.6748 41.4174 13.5898 41.4453 13.5047C41.4453 13.5047 41.4732 13.5047 41.5012 13.5047C41.5012 13.5047 41.5012 13.5047 41.5291 13.5047C41.5291 13.5614 41.585 13.6181 41.6408 13.7032C41.6688 13.7599 41.7247 13.8449 41.7526 13.9016C41.7526 13.9016 41.7526 13.9867 41.7526 14.0434C41.7526 14.0434 41.7526 14.0717 41.8085 14.0717C41.8085 14.1001 41.8364 14.1568 41.8643 14.2135C41.8923 14.3269 41.9202 14.4119 41.9202 14.5253C41.9202 14.5536 42.004 14.582 42.032 14.582C42.032 14.582 42.032 14.582 42.0599 14.582C42.0599 14.582 42.1437 14.4686 42.1996 14.4119C42.1996 14.3836 42.2834 14.3836 42.3113 14.4119C42.3672 14.4686 42.451 14.582 42.5348 14.7237C42.5348 14.7237 42.5627 14.7804 42.5907 14.8088C42.6465 14.8655 42.6745 14.9505 42.7304 15.0356C42.7304 15.0923 42.7304 15.1206 42.7304 15.1773C42.7304 15.234 42.7304 15.2624 42.7304 15.3191H42.9538Z" fill="#EA2700"/>
<path d="M41.6687 17.3318C41.0821 17.3318 40.663 16.7082 40.9145 16.1695C41.0262 15.9144 41.2218 15.6593 41.5849 15.3474L41.6687 15.5459C41.6687 15.5459 41.8364 15.6593 41.8922 15.6026C41.8922 15.6026 42.4789 15.9427 42.5068 16.5097C42.5068 16.9633 42.1437 17.3318 41.6687 17.3318Z" fill="#FFE99E"/>
<path d="M47.1442 28.2463V41.0601H15.6881V28.2463C15.6881 27.3958 16.3865 26.6871 17.2525 26.6871H45.5798C46.4458 26.6871 47.1442 27.3958 47.1442 28.2463Z" fill="#C7BDE5"/>
<path d="M44.6579 26.7154V34.6815C44.6579 35.8155 43.7081 36.751 42.5906 36.751H15.6881V28.2463C15.6881 27.3958 16.3865 26.6871 17.2525 26.6871H44.6579V26.7154Z" fill="#E5DCF9"/>
<path d="M51.8375 40.0395V52.6548H10.9949V40.0395C10.9949 39.0473 11.7771 38.2818 12.7269 38.2818H50.0775C51.0553 38.2818 51.8096 39.0756 51.8096 40.0395H51.8375Z" fill="#C7BDE5"/>
<path d="M48.3455 38.2818V46.2479C48.3455 47.3819 47.1442 48.3174 45.7195 48.3174H11.1904V39.8127C11.1904 38.9622 12.0844 38.2535 13.1739 38.2535H48.3455V38.2818Z" fill="#E5DCF9"/>
<path d="M51.8375 40.0395V43.8382L51.2229 44.1784C50.4128 44.632 49.4071 44.8872 48.3455 44.9155V38.2535H50.0776C51.0553 38.2535 51.8096 39.0473 51.8096 40.0111L51.8375 40.0395Z" fill="#A85E88"/>
<path d="M48.3455 38.2818V44.9439C48.3455 44.9439 48.0661 44.9439 47.9544 44.9439C46.7811 44.9439 45.5798 44.6604 44.6579 44.1217C43.4567 43.413 41.5291 43.3847 40.2719 44.1217L40.1323 44.2068C38.2885 45.2274 35.3831 45.2274 33.5673 44.1501C32.9806 43.8099 32.2263 43.6398 31.4721 43.6115H31.3882C30.5781 43.6115 29.7959 43.7816 29.2092 44.1217L29.0695 44.2068C27.2258 45.2274 24.2925 45.2274 22.4766 44.1501C21.3033 43.4414 19.3757 43.413 18.1186 44.1501L17.9789 44.2351C16.1351 45.2557 13.2018 45.2557 11.4139 44.1784L11.1625 44.0367L10.9669 43.9233V40.0678C10.9669 39.0756 11.7491 38.3102 12.699 38.3102H48.3455V38.2818Z" fill="#BE86A3"/>
<path d="M47.1442 28.2463V32.3569C46.2223 32.2718 45.3563 32.0167 44.6579 31.5915V26.6871H45.6077C46.4737 26.6871 47.1722 27.3958 47.1722 28.2463H47.1442Z" fill="#A85E88"/>
<path d="M44.6579 26.7154V31.6198C43.4567 30.9111 41.5291 30.8827 40.272 31.6198L40.1323 31.7049C38.2885 32.7254 35.3831 32.7254 33.5673 31.6482C32.9806 31.308 32.2264 31.1379 31.4721 31.1095H31.3883C30.5781 31.1095 29.7959 31.2796 29.2092 31.6198L29.0696 31.7049C27.2258 32.7254 24.2925 32.7254 22.4766 31.6482C21.3033 30.9394 19.3757 30.9111 18.1186 31.6482L17.9789 31.7332C17.504 32.0167 16.9732 32.1868 16.3586 32.3002C16.1351 32.3569 15.9116 32.4136 15.6602 32.4419V28.3313C15.6602 27.4808 16.3586 26.7721 17.2246 26.7721H44.6579V26.7154Z" fill="#BE86A3"/>
<path d="M55.8324 54.0439V54.6393C55.8324 55.3763 55.2457 56 54.4914 56H8.313C7.6146 56 7.02794 55.4047 7 54.696V54.0439C7 52.7966 7.97777 51.8044 9.20696 51.8044H53.6254C53.9886 51.8044 54.3238 51.8894 54.6032 52.0311C55.3295 52.3997 55.8324 53.1651 55.8324 54.0439Z" fill="#382E2C"/>
<path d="M54.7429 52.8249V53.4202C54.7429 54.1573 54.1283 54.7527 53.4019 54.7527H7.22349C7.22349 54.7527 7.05587 54.7527 7 54.696V54.0439C7 52.7966 7.97777 51.8044 9.20696 51.8044H53.6254C53.9886 51.8044 54.3238 51.8894 54.6032 52.0311C54.687 52.2863 54.7429 52.5414 54.7429 52.8249Z" fill="#443836"/>
<path d="M9.76566 31.9316C9.54218 31.8182 9.4863 31.5347 9.59805 31.3079L10.2126 30.2874C10.3244 30.0606 10.6037 30.0039 10.8272 30.1173C11.0507 30.2307 11.1066 30.5142 10.9949 30.741L10.3803 31.7615C10.2685 31.9883 9.98915 32.045 9.76566 31.9316Z" fill="#FA446D"/>
<path d="M8.14536 34.6815C7.92188 34.5681 7.866 34.2846 7.97775 34.0578L8.59234 33.0372C8.70409 32.8105 8.98345 32.7538 9.20694 32.8672C9.43043 32.9805 9.4863 33.264 9.37455 33.4908L8.75996 34.5114C8.64821 34.7382 8.36885 34.7949 8.14536 34.6815Z" fill="#FA446D"/>
<path d="M11.1066 33.916L10.1009 33.2924C9.87738 33.179 9.82151 32.8955 9.93325 32.6687C10.045 32.4419 10.3244 32.3852 10.5478 32.4986L11.5535 33.1223C11.777 33.2357 11.8329 33.5192 11.7212 33.746C11.6094 33.9727 11.3301 34.0294 11.1066 33.916Z" fill="#FA446D"/>
<path d="M8.39679 32.2718L7.39109 31.6481C7.1676 31.5347 7.11173 31.2513 7.22347 31.0245C7.33522 30.7977 7.61458 30.741 7.83807 30.8544L8.84377 31.478C9.06726 31.5914 9.12313 31.8749 9.01139 32.1017C8.89964 32.3285 8.62028 32.3852 8.39679 32.2718Z" fill="#FA446D"/>
<path d="M52.5359 6.87104C52.3124 6.75764 52.2566 6.47415 52.3683 6.24736L52.9829 5.22679C53.0946 5 53.374 4.9433 53.5975 5.0567C53.821 5.17009 53.8769 5.45359 53.7651 5.68038L53.1505 6.70095C53.0388 6.92774 52.7594 6.98444 52.5359 6.87104Z" fill="#00CCD5"/>
<path d="M50.9156 9.62089C50.6921 9.50749 50.6363 9.224 50.748 8.99721L51.3626 7.97664C51.4744 7.74985 51.7537 7.69315 51.9772 7.80655C52.2007 7.91994 52.2566 8.20343 52.1448 8.43023L51.5302 9.45079C51.4185 9.67759 51.1391 9.73428 50.9156 9.62089Z" fill="#00CCD5"/>
<path d="M53.8768 8.85547L52.8711 8.23179C52.6476 8.11839 52.5918 7.8349 52.7035 7.60811C52.8153 7.38132 53.0946 7.32462 53.3181 7.43802L54.3238 8.0617C54.5473 8.17509 54.6032 8.45858 54.4914 8.68537C54.3797 8.91217 54.1003 8.96887 53.8768 8.85547Z" fill="#00CCD5"/>
<path d="M51.1671 7.21124L50.1614 6.58756C49.9379 6.47417 49.882 6.19068 49.9937 5.96388C50.1055 5.73709 50.3848 5.68039 50.6083 5.79379L51.614 6.41747C51.8375 6.53087 51.8934 6.81436 51.7817 7.04115C51.6699 7.26794 51.3905 7.32464 51.1671 7.21124Z" fill="#00CCD5"/>
<path d="M54.9664 31.2796H55.6927C56.0279 31.2229 56.1117 30.741 55.7765 30.5992L55.0781 30.3441C54.4076 30.0889 53.9327 29.4652 53.8769 28.7282V27.9911C53.821 27.6509 53.3461 27.5659 53.2064 27.906L52.955 28.6148C52.7035 29.2952 52.0889 29.7771 51.3626 29.8338H50.6363C50.301 29.8905 50.2172 30.3724 50.5525 30.5142L51.2509 30.7693C51.9213 31.0244 52.3962 31.6481 52.4521 32.3852V33.1223C52.508 33.4625 52.9829 33.5475 53.1226 33.2073L53.374 32.4986C53.6254 31.8182 54.24 31.3363 54.9664 31.2796Z" fill="#FCB004"/>
<path d="M12.9783 13.2779H13.7047C14.0399 13.2212 14.1237 12.7393 13.7885 12.5976L13.0901 12.3424C12.4196 12.0873 11.9447 11.4636 11.8888 10.7265V9.98945C11.833 9.64926 11.358 9.56421 11.2184 9.9044L10.9669 10.6131C10.7155 11.2935 10.1009 11.7754 9.37457 11.8321H8.64823C8.313 11.8888 8.22919 12.3708 8.56442 12.5125L9.26283 12.7677C9.93329 13.0228 10.4082 13.6465 10.4641 14.3836V15.1206C10.52 15.4608 10.9949 15.5459 11.1345 15.2057L11.386 14.497C11.6374 13.8166 12.252 13.3346 12.9783 13.2779Z" fill="#FCB004"/>
</g>
<defs>
<clipPath id="clip0_0_354">
<rect width="49" height="51" fill="white" transform="translate(7 5)"/>
</clipPath>
</defs>
</svg>
