<svg width="18" height="18" viewBox="0 0 18 18" fill="none" xmlns="http://www.w3.org/2000/svg">
<path fill-rule="evenodd" clip-rule="evenodd" d="M0 3.75C0 1.67893 1.67893 0 3.75 0H14.25C16.3211 0 18 1.67893 18 3.75V14.25C18 16.3211 16.3211 18 14.25 18H3.75C1.67893 18 0 16.3211 0 14.25V3.75ZM3.75 1.5C2.50736 1.5 1.5 2.50736 1.5 3.75V14.25C1.5 15.4926 2.50736 16.5 3.75 16.5H14.25C15.4926 16.5 16.5 15.4926 16.5 14.25V3.75C16.5 2.50736 15.4926 1.5 14.25 1.5H3.75ZM3.75 5.25C3.75 4.83579 4.08579 4.5 4.5 4.5H13.5C13.9142 4.5 14.25 4.83579 14.25 5.25C14.25 5.66421 13.9142 6 13.5 6H4.5C4.08579 6 3.75 5.66421 3.75 5.25ZM3.75 9C3.75 8.58579 4.08579 8.25 4.5 8.25H13.5C13.9142 8.25 14.25 8.58579 14.25 9C14.25 9.41421 13.9142 9.75 13.5 9.75H4.5C4.08579 9.75 3.75 9.41421 3.75 9ZM3.75 12.75C3.75 12.3358 4.08579 12 4.5 12H7.5C7.91421 12 8.25 12.3358 8.25 12.75C8.25 13.1642 7.91421 13.5 7.5 13.5H4.5C4.08579 13.5 3.75 13.1642 3.75 12.75Z" fill="#E2E2E2"/>
</svg>
