<svg width="20" height="24" viewBox="0 0 20 24" fill="none" xmlns="http://www.w3.org/2000/svg">
<path d="M8 0.585787L0.585787 8H8V0.585787Z" fill="white"/>
<path fill-rule="evenodd" clip-rule="evenodd" d="M0 10V21C0 22.6569 1.34315 24 3 24H17C18.6569 24 20 22.6569 20 21V3C20 1.34315 18.6569 0 17 0H10V9C10 9.55229 9.55229 10 9 10H0ZM4 15C4 14.4477 4.44772 14 5 14H9C9.55228 14 10 14.4477 10 15C10 15.5523 9.55229 16 9 16H5C4.44772 16 4 15.5523 4 15ZM5 18C4.44772 18 4 18.4477 4 19C4 19.5523 4.44772 20 5 20H13C13.5523 20 14 19.5523 14 19C14 18.4477 13.5523 18 13 18H5Z" fill="white"/>
</svg>
