<svg width="21" height="18" viewBox="0 0 21 18" fill="none" xmlns="http://www.w3.org/2000/svg">
<path fill-rule="evenodd" clip-rule="evenodd" d="M10.0732 0.133356C10.33 -0.044452 10.6701 -0.044452 10.927 0.133356L20.677 6.88336C21.0175 7.11913 21.1025 7.58634 20.8667 7.92691C20.6309 8.26747 20.1637 8.35242 19.8232 8.11664L18.0001 6.8545V15.75C18.0001 16.9926 16.9927 18 15.7501 18H5.25007C4.00743 18 3.00007 16.9926 3.00007 15.75V6.8545L1.17698 8.11664C0.836412 8.35242 0.369198 8.26747 0.133424 7.92691C-0.102351 7.58634 -0.0174028 7.11913 0.32316 6.88336L10.0732 0.133356ZM10.5 12.75C11.7426 12.75 12.75 11.7426 12.75 10.5C12.75 9.25736 11.7426 8.25 10.5 8.25C9.25736 8.25 8.25 9.25736 8.25 10.5C8.25 11.7426 9.25736 12.75 10.5 12.75Z" fill="#773DBD"/>
</svg>
