<svg width="18" height="14" viewBox="0 0 18 14" fill="none" xmlns="http://www.w3.org/2000/svg">
<path fill-rule="evenodd" clip-rule="evenodd" d="M12 11.2246L13.5 11.4121V11.5C13.5 11.9142 13.8358 12.25 14.25 12.25C14.6642 12.25 15 11.9142 15 11.5V10.7599C15.0001 10.7527 15.0001 10.7454 15 10.7382V1.76179C15.0001 1.75457 15.0001 1.74734 15 1.74009V1C15 0.585787 14.6642 0.25 14.25 0.25C13.8358 0.25 13.5 0.585787 13.5 1V1.08791L2.15697 2.50579C1.78165 2.55271 1.5 2.87176 1.5 3.25V4.28647L0.41459 4.82918C0.160502 4.95622 0 5.21592 0 5.5V7C0 7.28408 0.160502 7.54377 0.41459 7.67082L1.5 8.21352V9.25C1.5 9.62824 1.78165 9.94729 2.15697 9.99421L4.5 10.2871V11.5C4.5 12.7426 5.50736 13.75 6.75 13.75H9.75C10.9926 13.75 12 12.7426 12 11.5V11.2246ZM5.33325 8.87957C5.34042 8.88036 5.34756 8.88125 5.35467 8.88225L13.5 9.90041V2.59959L3 3.91209V8.58791L5.33325 8.87957ZM10.5 11.0371L6 10.4746V11.5C6 11.9142 6.33579 12.25 6.75 12.25H9.75C10.1642 12.25 10.5 11.9142 10.5 11.5V11.0371Z" fill="#E2E2E2"/>
<path d="M16.3447 4.21967C16.0797 4.48462 16.0544 4.89847 16.2688 5.19183L16.2036 7.41686C16.02 7.78711 16.1706 8.23633 16.5406 8.42103C16.9112 8.60604 17.3617 8.45532 17.5468 8.08472C17.5467 8.08486 17.5466 8.08499 16.8756 7.75L17.5468 8.08472L17.5479 8.08233L17.5498 8.07854L17.5551 8.06765C17.5593 8.05894 17.5648 8.04735 17.5715 8.03307C17.5848 8.00452 17.6027 7.96504 17.6236 7.91614C17.6653 7.81873 17.7199 7.6819 17.7744 7.51809C17.8805 7.19944 18 6.73826 18 6.25C18 5.78049 17.9072 5.34754 17.8069 5.02458C17.7563 4.8616 17.7011 4.71761 17.6486 4.60161C17.6227 4.54412 17.5943 4.48677 17.5647 4.4346C17.5463 4.40222 17.4917 4.30606 17.4053 4.21967C17.1124 3.92678 16.6376 3.92678 16.3447 4.21967Z" fill="#E2E2E2"/>
</svg>
