<svg width="28" height="28" viewBox="0 0 28 28" fill="none" xmlns="http://www.w3.org/2000/svg">
<path d="M14.0001 25.6667C15.2834 25.6667 16.3334 24.6167 16.3334 23.3333H11.6667C11.6667 23.9522 11.9126 24.5457 12.3501 24.9833C12.7877 25.4208 13.3812 25.6667 14.0001 25.6667ZM21.0001 18.6667V12.8333C21.0001 9.25167 19.0867 6.25333 15.7501 5.46V4.66667C15.7501 3.69833 14.9684 2.91667 14.0001 2.91667C13.0317 2.91667 12.2501 3.69833 12.2501 4.66667V5.46C8.90173 6.25333 7.00006 9.24 7.00006 12.8333V18.6667L5.49506 20.1717C4.76006 20.9067 5.27339 22.1667 6.31173 22.1667H21.6767C22.7151 22.1667 23.2401 20.9067 22.5051 20.1717L21.0001 18.6667Z" fill="white"/>
<circle cx="21.5" cy="8.5" r="4" fill="#C3EF47" stroke="white"/>
</svg>
