<svg width="20" height="24" viewBox="0 0 20 24" fill="none" xmlns="http://www.w3.org/2000/svg">
<path d="M20 17.1429C20 18.563 18.8807 19.7143 17.5 19.7143H6.66667C5.28595 19.7143 4.16667 18.563 4.16667 17.1429V2.57143C4.16667 1.15127 5.28595 0 6.66667 0H14.3096C14.9727 0 15.6086 0.270918 16.0774 0.753154L19.2678 4.03466C19.7366 4.5169 20 5.17095 20 5.85294V17.1429Z" fill="white"/>
<path d="M2.5 4.28571V17.1429C2.5 19.5098 4.36548 21.4286 6.66667 21.4286H15.8333C15.8333 22.8487 14.714 24 13.3333 24H2.5C1.11929 24 0 22.8487 0 21.4286V6.85714C0 5.43698 1.11929 4.28571 2.5 4.28571Z" fill="white"/>
</svg>
