<svg width="161" height="167" viewBox="0 0 161 167" fill="none" xmlns="http://www.w3.org/2000/svg">
<path d="M35.7341 154C45.0356 154 49.5685 148.525 49.5685 141.166C49.5685 132.63 44.7412 128.627 35.7341 128.627H16.4836C13.9522 128.627 12.3038 127.155 12.3038 124.506C12.3038 121.857 13.8933 120.385 16.4836 120.385H47.4492V111.202H16.4836C7.59423 111.202 2.76689 116.5 2.76689 123.564C2.76689 130.805 7.94745 135.868 16.3659 135.868H35.7341C39.0308 135.868 40.9147 137.516 40.9147 140.401C40.9147 143.109 39.0308 144.816 35.7341 144.816H3.41446V154H35.7341ZM90.531 136.987V129.216H69.8677V136.987H90.531ZM64.5105 154V120.385H92.2971V111.202H55.3856V154H64.5105ZM155.775 154L145.355 114.38C144.708 111.908 143.236 110.672 140.999 110.672C139.056 110.672 137.525 111.79 136.642 113.733L123.926 140.931L111.21 113.733C110.269 111.79 108.502 110.672 106.619 110.672C104.264 110.672 102.792 111.908 102.145 114.38L91.6656 154H100.673L107.619 126.979L118.981 151.174C119.982 153.352 121.454 154.589 123.632 154.589C125.869 154.589 127.223 153.352 128.283 151.174L139.704 126.979L146.709 154H155.775Z" fill="white"/>
<path d="M148.93 25.04L57.76 44.24L78.18 0H160.48L148.93 25.04Z" fill="white"/>
<path d="M15.55 58.15L106.72 38.95L86.3 83.19H4L15.55 58.15Z" fill="white"/>
</svg>
