<svg width="15" height="20" viewBox="0 0 15 20" fill="none" xmlns="http://www.w3.org/2000/svg">
<path d="M10.5 9.75C10.5 10.1642 10.1642 10.5 9.75 10.5L5.25 10.5C4.83579 10.5 4.5 10.1642 4.5 9.75C4.5 9.33579 4.83579 9 5.25 9L9.75 9C10.1642 9 10.5 9.33579 10.5 9.75Z" fill="#E2E2E2"/>
<path d="M9.75 13.5C10.1642 13.5 10.5 13.1642 10.5 12.75C10.5 12.3358 10.1642 12 9.75 12H5.25C4.83579 12 4.5 12.3358 4.5 12.75C4.5 13.1642 4.83579 13.5 5.25 13.5H9.75Z" fill="#E2E2E2"/>
<path fill-rule="evenodd" clip-rule="evenodd" d="M6 0C5.71592 0 5.45622 0.160502 5.32918 0.41459L4.78647 1.5H2.25C1.00736 1.5 0 2.50736 0 3.75V17.25C0 18.4926 1.00736 19.5 2.25 19.5H12.75C13.9926 19.5 15 18.4926 15 17.25V3.75C15 2.50736 13.9926 1.5 12.75 1.5H10.2135L9.67082 0.41459C9.54378 0.160502 9.28408 0 9 0H6ZM12 3V5.25C12 5.66421 11.6642 6 11.25 6H3.75C3.33579 6 3 5.66421 3 5.25V3H2.25C1.83579 3 1.5 3.33579 1.5 3.75V17.25C1.5 17.6642 1.83579 18 2.25 18H12.75C13.1642 18 13.5 17.6642 13.5 17.25V3.75C13.5 3.33579 13.1642 3 12.75 3H12ZM5.92082 2.58541L6.46353 1.5H8.53647L9.07918 2.58541C9.20622 2.8395 9.46592 3 9.75 3H10.5V4.5H4.5V3H5.25C5.53408 3 5.79378 2.8395 5.92082 2.58541Z" fill="#E2E2E2"/>
</svg>
