<svg width="48" height="48" viewBox="0 0 48 48" fill="none" xmlns="http://www.w3.org/2000/svg">
<circle cx="24" cy="24" r="24" fill="#773DBD"/>
<path fill-rule="evenodd" clip-rule="evenodd" d="M16 14C14.8954 14 14 14.8954 14 16V18C14 19.1046 14.8954 20 16 20H32C33.1046 20 34 19.1046 34 18V16C34 14.8954 33.1046 14 32 14H16ZM15 23C15 22.4477 15.4477 22 16 22H32C32.5523 22 33 22.4477 33 23V31C33 32.6569 31.6569 34 30 34H18C16.3432 34 15 32.6569 15 31V23ZM21 27C21 26.4477 21.4477 26 22 26H26C26.5523 26 27 26.4477 27 27C27 27.5523 26.5523 28 26 28H22C21.4477 28 21 27.5523 21 27Z" fill="white"/>
</svg>
